<?xml version="1.0" encoding="utf-8"?>
<!-- Generator: Adobe Illustrator 26.0.3, SVG Export Plug-In . SVG Version: 6.00 Build 0)  -->
<svg version="1.1" id="Layer_1" xmlns="http://www.w3.org/2000/svg" xmlns:xlink="http://www.w3.org/1999/xlink" x="0px" y="0px"
	 viewBox="0 0 500 500" style="enable-background:new 0 0 500 500;" xml:space="preserve">
<style type="text/css">
	.st0{fill:#009EE3;}
	.st1{fill:#FFFFFF;}
</style>
<path class="st0" d="M499,110.12C499,49.85,450.15,1,389.88,1H110.12C49.85,1,1,49.85,1,110.12v279.76
	C1,450.15,49.85,499,110.12,499h279.76C450.15,499,499,450.15,499,389.88V110.12z"/>
<path class="st1" d="M306.02,296.72c-16.58,0-30.25-15.23-30.25-33.92c0-18.7,13.4-33.92,30.25-33.92
	c16.98,0,30.51,15.36,30.25,33.92C336.27,281.49,323,296.72,306.02,296.72 M194.19,296.72c-16.59,0-30.25-15.23-30.25-33.92
	c0-18.7,13.4-33.92,30.25-33.92c16.97,0,30.51,15.36,30.25,33.92C224.43,281.49,211.03,296.72,194.19,296.72 M366.64,142.99
	c-21.46-9.84-44.45-17.1-68.51-21.25c-0.44-0.08-0.88,0.12-1.1,0.52c-2.95,5.26-6.23,12.13-8.53,17.52
	c-25.86-3.88-51.6-3.88-76.94,0c-2.3-5.52-5.69-12.26-8.67-17.52c-0.22-0.39-0.66-0.59-1.1-0.52
	c-24.04,4.14-47.04,11.39-68.51,21.25c-0.18,0.08-0.34,0.22-0.45,0.39C89.19,208.57,77.24,272.16,83.1,334.95
	c0.02,0.31,0.2,0.6,0.44,0.79c28.78,21.14,56.67,33.97,84.05,42.48c0.43,0.13,0.9-0.02,1.18-0.38c6.47-8.85,12.24-18.17,17.19-27.97
	c0.3-0.57,0.02-1.25-0.58-1.49c-9.15-3.47-17.87-7.7-26.25-12.51c-0.66-0.39-0.71-1.34-0.11-1.79c1.77-1.32,3.53-2.7,5.21-4.08
	c0.31-0.26,0.73-0.31,1.09-0.15c55.09,25.15,114.72,25.15,169.15,0c0.36-0.17,0.78-0.12,1.1,0.13c1.68,1.39,3.44,2.78,5.22,4.1
	c0.61,0.46,0.57,1.4-0.09,1.79c-8.38,4.9-17.1,9.04-26.27,12.5c-0.6,0.22-0.86,0.92-0.56,1.49c5.05,9.79,10.82,19.11,17.18,27.95
	c0.26,0.37,0.74,0.53,1.18,0.4c27.5-8.51,55.39-21.34,84.18-42.48c0.25-0.19,0.41-0.47,0.43-0.78
	c7.02-72.6-11.75-135.66-49.76-191.57C366.99,143.21,366.82,143.08,366.64,142.99"/>
</svg>
