<?xml version="1.0" encoding="utf-8"?>
<!-- Generator: Adobe Illustrator 26.0.3, SVG Export Plug-In . SVG Version: 6.00 Build 0)  -->
<svg version="1.1" id="Layer_1" xmlns="http://www.w3.org/2000/svg" xmlns:xlink="http://www.w3.org/1999/xlink" x="0px" y="0px"
	 viewBox="0 0 500 500" style="enable-background:new 0 0 500 500;" xml:space="preserve">
<style type="text/css">
	.st0{fill:#009EE3;}
	.st1{fill:#FFFFFF;}
</style>
<path class="st0" d="M499,110.12C499,49.85,450.15,1,389.88,1H110.12C49.85,1,1,49.85,1,110.12v279.76
	C1,450.15,49.85,499,110.12,499h279.76C450.15,499,499,450.15,499,389.88V110.12z"/>
<path class="st1" d="M171.17,147.62c56.55,0,102.38,45.84,102.38,102.38c0,56.55-45.83,102.39-102.38,102.39S68.79,306.54,68.79,250
	C68.79,193.46,114.62,147.62,171.17,147.62"/>
<path class="st1" d="M334.16,152.94c28.27,0,51.19,43.55,51.19,97.26c0,53.72-22.92,97.27-51.19,97.27s-51.19-43.55-51.19-97.27
	C282.96,196.49,305.89,152.94,334.16,152.94"/>
<path class="st1" d="M413.2,163.59c9.95,0,18.02,38.87,18.02,86.82s-8.07,86.83-18.02,86.83s-18.02-38.88-18.02-86.83
	S403.25,163.59,413.2,163.59"/>
</svg>
