<?xml version="1.0" encoding="utf-8"?>
<!-- Generator: Adobe Illustrator 26.0.3, SVG Export Plug-In . SVG Version: 6.00 Build 0)  -->
<svg version="1.1" id="Layer_1" xmlns="http://www.w3.org/2000/svg" xmlns:xlink="http://www.w3.org/1999/xlink" x="0px" y="0px"
	 viewBox="0 0 500 500" style="enable-background:new 0 0 500 500;" xml:space="preserve">
<style type="text/css">
	.st0{fill:#009EE3;}
	.st1{fill:#FFFFFF;}
</style>
<path class="st0" d="M499,110.12C499,49.85,450.15,1,389.88,1H110.12C49.85,1,1,49.85,1,110.12v279.76
	C1,450.15,49.85,499,110.12,499h279.76C450.15,499,499,450.15,499,389.88V110.12z"/>
<path class="st1" d="M318.35,323.63c-16.91,0-30.62-14.97-30.62-33.43c0-18.47,13.71-33.43,30.62-33.43
	c16.92,0,30.62,14.96,30.62,33.43C348.97,308.66,335.27,323.63,318.35,323.63 M334.58,381.56c-22,19.46-51.48,30.16-83.02,30.16
	s-61.03-10.71-83.03-30.16c-4.13-3.65-4.76-10.26-1.43-14.76c3.34-4.52,9.4-5.21,13.52-1.56c18.33,16.2,44.17,25.49,70.94,25.49
	c27.15,0,52.34-9.06,70.94-25.49c4.13-3.65,10.18-2.95,13.51,1.56C339.35,371.31,338.7,377.91,334.58,381.56 M149.6,290.2
	c0-18.47,13.71-33.43,30.62-33.43c16.91,0,30.62,14.96,30.62,33.43c0,18.46-13.71,33.43-30.62,33.43
	C163.31,323.63,149.6,308.66,149.6,290.2 M453.63,252.87c0-26.19-19.45-47.43-43.43-47.43c-11.61,0-22.14,5-29.93,13.11
	c-31.2-25.68-75.16-41.99-124.1-42.96l22.67-103.57l67.03,17.5c0,0.09-0.02,0.17-0.02,0.27c0,19.41,14.41,35.14,32.17,35.14
	c17.77,0,32.18-15.74,32.18-35.14c0-19.41-14.41-35.14-32.18-35.14c-12.57,0-23.45,7.91-28.73,19.41l-81.09-21.4l-0.07,0.32
	l-0.06-0.02l-26.82,122.79c-47.57,2.11-90.09,18.73-120.19,44.25c-7.9-8.96-18.97-14.56-31.27-14.56
	c-23.98,0-43.43,21.24-43.43,47.43c0,20.96,12.46,38.7,29.72,44.99c-0.58,4.45-0.89,8.98-0.89,13.55
	c0,75.07,78.96,135.92,176.35,135.92s176.34-60.85,176.34-135.92c0-4.97-0.37-9.89-1.05-14.73
	C442.57,289.55,453.63,272.63,453.63,252.87"/>
</svg>
