<?xml version="1.0" encoding="utf-8"?>
<!-- Generator: Adobe Illustrator 26.0.3, SVG Export Plug-In . SVG Version: 6.00 Build 0)  -->
<svg version="1.1" id="Layer_1" xmlns="http://www.w3.org/2000/svg" xmlns:xlink="http://www.w3.org/1999/xlink" x="0px" y="0px"
	 viewBox="0 0 500 52" style="enable-background:new 0 0 500 52;" xml:space="preserve">
<style type="text/css">
	.st0{fill:#FFB62B;}
	.st1{fill:#009EE3;}
</style>
<path class="st0" d="M476.33,44.14v-32h-10.55v37.8H499v-5.8H476.33z M453.12,12.14h-10.59v37.81h10.59V12.14z M414.37,12.14h-10.75
	l-22.32,37.8h8.24c0.89,0,1.63-0.16,2.24-0.5c0.6-0.33,1.01-0.7,1.22-1.1l4.24-7.71h23.49l4.24,7.71c0.29,0.45,0.72,0.83,1.29,1.14
	c0.57,0.3,1.32,0.46,2.24,0.46h8.16L414.37,12.14z M399.98,35.67l6.86-12.52c0.34-0.57,0.69-1.25,1.06-2.03
	c0.37-0.77,0.72-1.61,1.06-2.5c0.37,0.89,0.73,1.72,1.1,2.48c0.37,0.77,0.72,1.43,1.06,1.99l6.9,12.58H399.98z M376.2,6.04
	c-2.52-1.61-5.52-2.86-9-3.73C363.72,1.44,359.89,1,355.73,1c-3.7,0-6.99,0.38-9.88,1.14c-2.89,0.76-5.32,1.78-7.29,3.04
	c-1.97,1.27-3.46,2.72-4.49,4.35c-1.03,1.64-1.54,3.33-1.54,5.08c0,2.2,0.49,4.03,1.46,5.5c0.98,1.47,2.26,2.7,3.86,3.7
	c1.6,1,3.42,1.8,5.47,2.42c2.05,0.62,4.13,1.15,6.25,1.61c2.12,0.46,4.2,0.89,6.25,1.29c2.05,0.4,3.87,0.9,5.47,1.48
	c1.6,0.58,2.88,1.31,3.86,2.17c0.97,0.86,1.46,1.98,1.46,3.35c0,2.44-1.17,4.36-3.5,5.75c-2.34,1.39-5.64,2.08-9.91,2.08
	c-2.62,0-4.87-0.24-6.76-0.72c-1.88-0.48-3.49-1.01-4.81-1.58c-1.33-0.57-2.46-1.1-3.4-1.58c-0.94-0.48-1.8-0.72-2.57-0.72
	c-0.57,0-1.09,0.09-1.56,0.27c-0.47,0.18-0.86,0.43-1.16,0.74l-3.43,3.77c1.38,0.96,2.94,1.84,4.69,2.62c1.75,0.78,3.62,1.45,5.62,2
	c2,0.55,4.1,0.97,6.3,1.28c2.2,0.3,4.46,0.45,6.78,0.45c3.93,0,7.44-0.4,10.51-1.21c3.08-0.81,5.66-1.91,7.77-3.31
	c2.1-1.4,3.71-3.04,4.81-4.93c1.11-1.88,1.66-3.9,1.66-6.05c0-1.99-0.49-3.69-1.46-5.08c-0.98-1.39-2.26-2.57-3.86-3.53
	c-1.6-0.96-3.42-1.76-5.47-2.39c-2.05-0.63-4.14-1.19-6.28-1.68c-2.13-0.49-4.23-0.96-6.28-1.4c-2.05-0.44-3.87-0.95-5.47-1.53
	c-1.6-0.58-2.88-1.28-3.86-2.1c-0.98-0.82-1.46-1.84-1.46-3.08c0-0.96,0.26-1.85,0.78-2.67c0.52-0.82,1.3-1.53,2.35-2.13
	c1.04-0.61,2.33-1.08,3.86-1.41c1.53-0.34,3.3-0.5,5.32-0.5c2.18,0,4.07,0.18,5.65,0.55c1.58,0.37,2.95,0.77,4.11,1.21
	c1.16,0.44,2.13,0.83,2.92,1.19c0.79,0.36,1.5,0.54,2.14,0.54c0.61,0,1.11-0.09,1.51-0.29c0.4-0.19,0.79-0.49,1.16-0.89L376.2,6.04z
	"/>
<path class="st1" d="M304.89,12.14h-10.75l-22.31,37.8h8.24c0.89,0,1.63-0.16,2.23-0.5c0.6-0.33,1.01-0.7,1.22-1.1l4.24-7.71h23.49
	l4.24,7.71c0.29,0.45,0.72,0.83,1.29,1.14c0.58,0.3,1.32,0.46,2.24,0.46h8.16L304.89,12.14z M290.5,35.67l6.86-12.52
	c0.34-0.57,0.69-1.25,1.06-2.03c0.37-0.77,0.72-1.61,1.06-2.5c0.37,0.89,0.73,1.72,1.1,2.48c0.37,0.77,0.72,1.43,1.06,1.99
	l6.9,12.58H290.5z M256.65,12.14v22.98c0,0.51,0.03,1.06,0.08,1.65c0.05,0.59,0.12,1.19,0.2,1.8L227.2,13.26
	c-0.29-0.24-0.55-0.44-0.78-0.59c-0.24-0.15-0.48-0.26-0.73-0.34c-0.25-0.08-0.54-0.13-0.86-0.16c-0.33-0.03-0.71-0.04-1.16-0.04
	h-5.53v37.8h9.29V26.73c0-0.98-0.08-2.04-0.24-3.19l29.61,25.2c0.52,0.44,1.06,0.75,1.63,0.93c0.56,0.18,1.26,0.27,2.1,0.27h5.41
	v-37.8H256.65z M189.99,12.14h-10.75l-22.31,37.8h8.24c0.89,0,1.63-0.16,2.23-0.5c0.6-0.33,1.01-0.7,1.22-1.1l4.24-7.71h23.49
	l4.24,7.71c0.29,0.45,0.72,0.83,1.29,1.14c0.58,0.3,1.32,0.46,2.24,0.46h8.16L189.99,12.14z M175.59,35.67l6.86-12.52
	c0.34-0.57,0.69-1.25,1.06-2.03c0.37-0.77,0.72-1.61,1.06-2.5c0.37,0.89,0.73,1.72,1.1,2.48c0.37,0.77,0.72,1.43,1.06,1.99
	l6.9,12.58H175.59z M133.47,44.14v-32h-10.55v37.8h33.22v-5.8H133.47z M101.59,36.62c-0.84,1.65-2.03,3.04-3.57,4.18
	c-1.54,1.14-3.42,2.02-5.63,2.63c-2.21,0.61-4.7,0.92-7.47,0.92c-2.77,0-5.26-0.31-7.47-0.92c-2.21-0.61-4.09-1.49-5.65-2.63
	c-1.55-1.14-2.75-2.54-3.59-4.18c-0.84-1.65-1.25-3.51-1.25-5.58c0-2.07,0.42-3.94,1.25-5.58c0.84-1.65,2.03-3.05,3.59-4.2
	c1.56-1.15,3.44-2.03,5.65-2.64c2.21-0.61,4.7-0.91,7.47-0.91c2.77,0,5.26,0.31,7.47,0.91c2.21,0.61,4.09,1.49,5.63,2.64
	c1.54,1.15,2.73,2.55,3.57,4.2c0.84,1.65,1.25,3.51,1.25,5.58C102.85,33.11,102.43,34.98,101.59,36.62 M112.71,25.76
	c-0.61-1.67-1.51-3.22-2.69-4.65c-1.18-1.43-2.61-2.72-4.3-3.88c-1.69-1.16-3.59-2.14-5.71-2.95c-2.12-0.81-4.44-1.44-6.98-1.88
	c-2.54-0.44-5.24-0.67-8.12-0.67c-4.29,0-8.2,0.48-11.73,1.45c-3.53,0.97-6.56,2.31-9.08,4.04c-2.52,1.73-4.48,3.77-5.86,6.13
	c-1.39,2.36-2.08,4.93-2.08,7.7c0,2.77,0.69,5.34,2.08,7.7c1.39,2.36,3.34,4.41,5.86,6.13c2.52,1.73,5.55,3.07,9.08,4.04
	c3.53,0.97,7.44,1.45,11.73,1.45c4.31,0,8.24-0.48,11.77-1.45c3.53-0.97,6.55-2.31,9.06-4.04c2.51-1.73,4.45-3.77,5.82-6.13
	c1.37-2.36,2.06-4.93,2.06-7.7C113.63,29.19,113.32,27.43,112.71,25.76 M47.69,6.04c-2.52-1.61-5.52-2.86-9-3.73
	C35.21,1.44,31.39,1,27.22,1c-3.7,0-6.99,0.38-9.88,1.14c-2.89,0.76-5.32,1.78-7.29,3.04C8.08,6.45,6.59,7.9,5.56,9.54
	s-1.54,3.33-1.54,5.08c0,2.2,0.49,4.03,1.46,5.5c0.98,1.47,2.26,2.7,3.86,3.7c1.6,1,3.42,1.8,5.47,2.42
	c2.05,0.62,4.13,1.15,6.25,1.61c2.12,0.46,4.2,0.89,6.25,1.29c2.05,0.4,3.87,0.9,5.47,1.48c1.6,0.58,2.88,1.31,3.86,2.17
	c0.97,0.86,1.46,1.98,1.46,3.35c0,2.44-1.17,4.36-3.5,5.75c-2.34,1.39-5.64,2.08-9.91,2.08c-2.62,0-4.87-0.24-6.76-0.72
	c-1.88-0.48-3.49-1.01-4.81-1.58c-1.33-0.57-2.46-1.1-3.4-1.58c-0.94-0.48-1.8-0.72-2.57-0.72c-0.57,0-1.09,0.09-1.56,0.27
	c-0.47,0.18-0.86,0.43-1.16,0.74L1,44.13c1.38,0.96,2.94,1.84,4.69,2.62c1.75,0.78,3.62,1.45,5.62,2c2,0.55,4.1,0.97,6.3,1.28
	c2.2,0.3,4.46,0.45,6.78,0.45c3.93,0,7.44-0.4,10.51-1.21c3.08-0.81,5.66-1.91,7.77-3.31c2.1-1.4,3.71-3.04,4.81-4.93
	c1.11-1.88,1.66-3.9,1.66-6.05c0-1.99-0.49-3.69-1.46-5.08c-0.98-1.39-2.26-2.57-3.86-3.53c-1.6-0.96-3.42-1.76-5.47-2.39
	c-2.05-0.63-4.14-1.19-6.28-1.68c-2.13-0.49-4.23-0.96-6.28-1.4c-2.05-0.44-3.87-0.95-5.47-1.53c-1.6-0.58-2.88-1.28-3.86-2.1
	c-0.98-0.82-1.46-1.84-1.46-3.08c0-0.96,0.26-1.85,0.78-2.67c0.52-0.82,1.3-1.53,2.35-2.13C19.19,8.8,20.47,8.33,22,7.99
	c1.53-0.34,3.3-0.5,5.32-0.5c2.18,0,4.07,0.18,5.65,0.55c1.58,0.37,2.95,0.77,4.11,1.21c1.16,0.44,2.13,0.83,2.92,1.19
	c0.79,0.36,1.5,0.54,2.14,0.54c0.61,0,1.11-0.09,1.51-0.29c0.4-0.19,0.79-0.49,1.16-0.89L47.69,6.04z"/>
</svg>
