<?xml version="1.0" encoding="utf-8"?>
<!-- Generator: Adobe Illustrator 26.0.3, SVG Export Plug-In . SVG Version: 6.00 Build 0)  -->
<svg version="1.1" id="Layer_1" xmlns="http://www.w3.org/2000/svg" xmlns:xlink="http://www.w3.org/1999/xlink" x="0px" y="0px"
	 viewBox="0 0 500 500" style="enable-background:new 0 0 500 500;" xml:space="preserve">
<style type="text/css">
	.st0{fill:#009EE3;}
	.st1{fill:#FFFFFF;}
</style>
<path class="st0" d="M499,110.12C499,49.85,450.15,1,389.88,1H110.12C49.85,1,1,49.85,1,110.12v279.76
	C1,450.15,49.85,499,110.12,499h279.76C450.15,499,499,450.15,499,389.88V110.12z"/>
<path class="st1" d="M92.03,240.34c91.67-39.94,152.79-66.27,183.38-78.99c87.32-36.32,105.47-42.63,117.3-42.84
	c2.6-0.05,8.42,0.6,12.18,3.65c3.18,2.58,4.06,6.07,4.47,8.52c0.42,2.45,0.94,8.03,0.52,12.38
	c-4.73,49.72-25.21,170.38-35.62,226.07c-4.41,23.56-13.08,31.47-21.49,32.24c-18.26,1.68-32.12-12.07-49.81-23.65
	c-27.68-18.14-43.31-29.44-70.18-47.14c-31.04-20.46-10.92-31.7,6.77-50.07c4.63-4.81,85.08-78,86.64-84.64
	c0.19-0.83,0.37-3.93-1.46-5.55c-1.84-1.64-4.56-1.08-6.52-0.63c-2.77,0.62-46.99,29.85-132.63,87.66
	c-12.55,8.62-23.91,12.82-34.1,12.59c-11.23-0.24-32.83-6.34-48.88-11.56c-19.7-6.4-35.35-9.79-33.98-20.66
	C69.34,252.05,77.14,246.26,92.03,240.34"/>
</svg>
