<?xml version="1.0" encoding="utf-8"?>
<!-- Generator: Adobe Illustrator 26.0.3, SVG Export Plug-In . SVG Version: 6.00 Build 0)  -->
<svg version="1.1" id="Layer_1" xmlns="http://www.w3.org/2000/svg" xmlns:xlink="http://www.w3.org/1999/xlink" x="0px" y="0px"
	 viewBox="0 0 500 500" style="enable-background:new 0 0 500 500;" xml:space="preserve">
<style type="text/css">
	.st0{fill:#009EE3;}
	.st1{fill:#FFFFFF;}
</style>
<path class="st0" d="M499,110.12C499,49.85,450.15,1,389.88,1H110.12C49.85,1,1,49.85,1,110.12v279.76
	C1,450.15,49.85,499,110.12,499h279.76C450.15,499,499,450.15,499,389.88V110.12z"/>
<path class="st1" d="M438.57,133.07c-13.88,6.15-28.78,10.33-44.42,12.18c15.98-9.57,28.2-24.74,34.01-42.78
	c-14.99,8.86-31.53,15.3-49.16,18.78c-14.12-15.06-34.2-24.44-56.46-24.44c-42.73,0-77.37,34.64-77.37,77.35
	c0,6.06,0.68,11.97,2,17.63c-64.29-3.23-121.3-34.03-159.45-80.83c-6.67,11.4-10.47,24.69-10.47,38.89
	c0,26.84,13.67,50.52,34.4,64.38c-12.67-0.42-24.6-3.91-35.04-9.71v0.97c0,37.47,26.68,68.74,62.05,75.86
	c-6.47,1.74-13.31,2.71-20.38,2.71c-5,0-9.83-0.49-14.56-1.44c9.84,30.75,38.41,53.12,72.25,53.73
	c-26.46,20.74-59.83,33.07-96.08,33.07c-6.24,0-12.4-0.38-18.45-1.06c34.24,21.99,74.89,34.81,118.59,34.81
	c142.32,0,220.12-117.88,220.12-220.12l-0.26-10.01C415.08,162.2,428.22,148.57,438.57,133.07"/>
</svg>
