<?xml version="1.0" encoding="utf-8"?>
<!-- Generator: Adobe Illustrator 26.0.3, SVG Export Plug-In . SVG Version: 6.00 Build 0)  -->
<svg version="1.1" id="Layer_1" xmlns="http://www.w3.org/2000/svg" xmlns:xlink="http://www.w3.org/1999/xlink" x="0px" y="0px"
	 viewBox="0 0 500 78" style="enable-background:new 0 0 500 78;" xml:space="preserve">
<style type="text/css">
	.st0{fill:#FFB62B;}
</style>
<g>
	<path class="st0" d="M28.6,3.8H17.8v29h-2.3v-29H4.6V1.9h24V3.8z"/>
	<path class="st0" d="M35.7,14.7c1-1.2,2.2-2.2,3.4-2.9c1.3-0.7,2.7-1.1,4.3-1.1c1.2,0,2.2,0.2,3.2,0.6c0.9,0.4,1.7,0.9,2.3,1.6
		c0.6,0.7,1,1.6,1.4,2.6s0.5,2.1,0.5,3.4v13.9h-2.1V18.9c0-2-0.5-3.6-1.4-4.8c-0.9-1.2-2.4-1.7-4.3-1.7c-1.4,0-2.7,0.4-4,1.1
		c-1.2,0.7-2.3,1.7-3.3,3v16.4h-2.1V1h2.1V14.7z"/>
	<path class="st0" d="M59.4,21.1v0.4c0,1.6,0.2,3.1,0.6,4.3c0.4,1.2,0.9,2.3,1.6,3.1c0.7,0.8,1.5,1.5,2.5,1.9c1,0.4,2.1,0.6,3.3,0.6
		c1.1,0,2-0.1,2.8-0.4c0.8-0.2,1.5-0.5,2-0.8c0.5-0.3,1-0.6,1.3-0.8c0.3-0.2,0.6-0.4,0.7-0.4c0.2,0,0.3,0.1,0.4,0.2l0.6,0.7
		c-0.3,0.4-0.8,0.8-1.4,1.2c-0.6,0.4-1.2,0.7-1.9,1c-0.7,0.3-1.5,0.5-2.3,0.6c-0.8,0.2-1.6,0.2-2.4,0.2c-1.5,0-2.8-0.3-4.1-0.8
		C62,31.8,61,31,60.1,30.1c-0.9-1-1.5-2.2-2-3.6c-0.5-1.4-0.7-3.1-0.7-4.9c0-1.6,0.2-3,0.7-4.3c0.4-1.3,1.1-2.5,1.9-3.4
		c0.8-1,1.9-1.7,3.1-2.2c1.2-0.5,2.6-0.8,4.1-0.8c1.2,0,2.4,0.2,3.4,0.6c1,0.4,2,1,2.7,1.8c0.8,0.8,1.4,1.8,1.8,3
		c0.4,1.2,0.7,2.5,0.7,4.1c0,0.3,0,0.5-0.1,0.7c-0.1,0.1-0.2,0.2-0.4,0.2H59.4z M74,19.7c0-1.2-0.2-2.2-0.5-3.1
		c-0.3-0.9-0.8-1.7-1.4-2.4c-0.6-0.6-1.3-1.1-2.1-1.5c-0.8-0.3-1.7-0.5-2.7-0.5c-1.1,0-2.1,0.2-3,0.5c-0.9,0.3-1.7,0.9-2.3,1.5
		c-0.6,0.7-1.2,1.4-1.6,2.4c-0.4,0.9-0.7,1.9-0.8,3.1H74z"/>
	<path class="st0" d="M96.9,32.8V13.3l-3.1-0.2c-0.4,0-0.6-0.2-0.6-0.5v-0.9h3.7V9.9c0-1.3,0.2-2.5,0.6-3.6c0.4-1.1,1-2,1.7-2.7
		c0.8-0.8,1.7-1.3,2.8-1.7c1.1-0.4,2.3-0.6,3.7-0.6c0.5,0,1,0,1.5,0.1c0.5,0.1,1,0.2,1.3,0.3l-0.1,1c0,0.1-0.1,0.2-0.2,0.2
		c-0.1,0-0.2,0-0.4,0c-0.2,0-0.4,0-0.7-0.1c-0.3,0-0.6-0.1-1-0.1c-2.3,0-4.1,0.6-5.3,1.8c-1.3,1.2-1.9,3-1.9,5.4v1.8h12.7v21.1h-2.1
		V13.3H99v19.5H96.9z"/>
	<path class="st0" d="M122.2,16.3c0.3-0.9,0.7-1.7,1.1-2.4c0.4-0.7,0.9-1.3,1.5-1.8c0.6-0.5,1.2-0.8,1.9-1.1
		c0.7-0.3,1.5-0.4,2.3-0.4c0.5,0,0.9,0,1.3,0.1c0.4,0.1,0.8,0.2,1.2,0.4l-0.2,1.4c-0.1,0.2-0.2,0.3-0.4,0.3c-0.2,0-0.4-0.1-0.8-0.2
		c-0.4-0.1-0.8-0.2-1.4-0.2c-0.8,0-1.6,0.1-2.2,0.4c-0.6,0.3-1.2,0.6-1.7,1.1c-0.5,0.5-1,1.1-1.4,1.9c-0.4,0.8-0.7,1.6-1.1,2.6v14.1
		h-2.1V11.1h1.1c0.2,0,0.4,0.1,0.5,0.2c0.1,0.1,0.2,0.3,0.2,0.5L122.2,16.3z"/>
	<path class="st0" d="M148.5,13.7c-0.1,0.2-0.3,0.3-0.5,0.3c-0.2,0-0.4-0.1-0.6-0.3c-0.2-0.2-0.6-0.4-1-0.6
		c-0.4-0.2-0.9-0.4-1.5-0.6c-0.6-0.2-1.4-0.3-2.2-0.3c-0.8,0-1.5,0.1-2.2,0.3c-0.6,0.2-1.2,0.5-1.7,0.9c-0.5,0.4-0.8,0.8-1.1,1.3
		c-0.2,0.5-0.4,1-0.4,1.6c0,0.7,0.2,1.3,0.5,1.7c0.3,0.5,0.8,0.8,1.4,1.2c0.6,0.3,1.2,0.6,1.9,0.8c0.7,0.2,1.5,0.5,2.2,0.7
		c0.8,0.2,1.5,0.5,2.2,0.8c0.7,0.3,1.4,0.6,1.9,1.1s1,0.9,1.4,1.6s0.5,1.4,0.5,2.2c0,0.9-0.2,1.8-0.5,2.6c-0.3,0.8-0.8,1.5-1.5,2.1
		c-0.6,0.6-1.4,1.1-2.4,1.4c-0.9,0.4-2,0.5-3.3,0.5c-1.5,0-2.8-0.2-4-0.7c-1.1-0.5-2.1-1.1-3-1.9l0.5-0.7c0.1-0.1,0.2-0.2,0.3-0.3
		c0.1-0.1,0.2-0.1,0.4-0.1c0.2,0,0.4,0.1,0.7,0.3c0.3,0.2,0.6,0.5,1.1,0.8c0.5,0.3,1,0.5,1.7,0.8c0.7,0.2,1.5,0.3,2.5,0.3
		c0.9,0,1.7-0.1,2.4-0.4c0.7-0.3,1.3-0.6,1.7-1c0.5-0.4,0.8-1,1.1-1.5c0.2-0.6,0.4-1.2,0.4-1.9c0-0.7-0.2-1.3-0.5-1.8
		c-0.3-0.5-0.8-0.9-1.4-1.2c-0.6-0.3-1.2-0.6-1.9-0.9c-0.7-0.2-1.5-0.5-2.2-0.7c-0.8-0.2-1.5-0.5-2.2-0.8c-0.7-0.3-1.4-0.6-1.9-1
		c-0.6-0.4-1-0.9-1.4-1.5c-0.3-0.6-0.5-1.4-0.5-2.3c0-0.8,0.2-1.5,0.5-2.2c0.3-0.7,0.8-1.3,1.4-1.9c0.6-0.5,1.4-1,2.3-1.3
		c0.9-0.3,1.9-0.5,3-0.5c1.3,0,2.5,0.2,3.5,0.6c1,0.4,2,1,2.8,1.7L148.5,13.7z"/>
	<path class="st0" d="M162.1,33.2c-1.5,0-2.6-0.4-3.4-1.2c-0.8-0.8-1.2-2.1-1.2-3.8V13.3h-3.1c-0.2,0-0.3,0-0.4-0.1
		c-0.1-0.1-0.2-0.2-0.2-0.4V12l3.7-0.3l0.5-7.8c0-0.1,0.1-0.2,0.2-0.3c0.1-0.1,0.2-0.2,0.4-0.2h1v8.3h6.9v1.6h-6.9V28
		c0,0.6,0.1,1.1,0.2,1.5c0.2,0.4,0.4,0.8,0.6,1.1c0.3,0.3,0.6,0.5,1,0.6c0.4,0.1,0.8,0.2,1.2,0.2c0.5,0,1-0.1,1.4-0.2
		c0.4-0.2,0.7-0.3,1-0.5c0.3-0.2,0.5-0.3,0.7-0.5c0.2-0.2,0.3-0.2,0.4-0.2c0.1,0,0.2,0.1,0.3,0.2l0.6,0.9c-0.6,0.6-1.3,1.1-2.1,1.5
		C163.9,33,163,33.2,162.1,33.2z"/>
	<path class="st0" d="M186,21.1v0.4c0,1.6,0.2,3.1,0.6,4.3c0.4,1.2,0.9,2.3,1.6,3.1c0.7,0.8,1.5,1.5,2.5,1.9c1,0.4,2.1,0.6,3.3,0.6
		c1.1,0,2-0.1,2.8-0.4c0.8-0.2,1.5-0.5,2-0.8c0.5-0.3,1-0.6,1.3-0.8c0.3-0.2,0.6-0.4,0.7-0.4c0.2,0,0.3,0.1,0.4,0.2l0.6,0.7
		c-0.3,0.4-0.8,0.8-1.4,1.2c-0.6,0.4-1.2,0.7-1.9,1c-0.7,0.3-1.5,0.5-2.3,0.6c-0.8,0.2-1.6,0.2-2.4,0.2c-1.5,0-2.8-0.3-4.1-0.8
		c-1.2-0.5-2.3-1.3-3.1-2.3c-0.9-1-1.5-2.2-2-3.6c-0.5-1.4-0.7-3.1-0.7-4.9c0-1.6,0.2-3,0.7-4.3c0.4-1.3,1.1-2.5,1.9-3.4
		c0.8-1,1.9-1.7,3.1-2.2c1.2-0.5,2.6-0.8,4.1-0.8c1.2,0,2.4,0.2,3.4,0.6c1,0.4,2,1,2.7,1.8c0.8,0.8,1.4,1.8,1.8,3
		c0.4,1.2,0.7,2.5,0.7,4.1c0,0.3,0,0.5-0.1,0.7c-0.1,0.1-0.2,0.2-0.4,0.2H186z M200.5,19.7c0-1.2-0.2-2.2-0.5-3.1
		c-0.3-0.9-0.8-1.7-1.4-2.4c-0.6-0.6-1.3-1.1-2.1-1.5c-0.8-0.3-1.7-0.5-2.7-0.5c-1.1,0-2.1,0.2-3,0.5c-0.9,0.3-1.7,0.9-2.3,1.5
		c-0.6,0.7-1.2,1.4-1.6,2.4c-0.4,0.9-0.7,1.9-0.8,3.1H200.5z"/>
	<path class="st0" d="M226.2,11.1L217,32.8h-1.8L206,11.1h1.6c0.2,0,0.4,0.1,0.5,0.2c0.1,0.1,0.2,0.2,0.3,0.4l7.2,17.2
		c0.2,0.6,0.4,1.3,0.5,1.9c0.1-0.6,0.3-1.3,0.5-1.9l7.2-17.2c0.1-0.2,0.2-0.3,0.3-0.4c0.1-0.1,0.3-0.1,0.4-0.1H226.2z"/>
	<path class="st0" d="M232,21.1v0.4c0,1.6,0.2,3.1,0.6,4.3c0.4,1.2,0.9,2.3,1.6,3.1c0.7,0.8,1.5,1.5,2.5,1.9c1,0.4,2.1,0.6,3.3,0.6
		c1.1,0,2-0.1,2.8-0.4c0.8-0.2,1.5-0.5,2-0.8c0.5-0.3,1-0.6,1.3-0.8c0.3-0.2,0.6-0.4,0.7-0.4c0.2,0,0.3,0.1,0.4,0.2l0.6,0.7
		c-0.3,0.4-0.8,0.8-1.4,1.2c-0.6,0.4-1.2,0.7-1.9,1c-0.7,0.3-1.5,0.5-2.3,0.6c-0.8,0.2-1.6,0.2-2.4,0.2c-1.5,0-2.8-0.3-4.1-0.8
		c-1.2-0.5-2.3-1.3-3.1-2.3c-0.9-1-1.5-2.2-2-3.6c-0.5-1.4-0.7-3.1-0.7-4.9c0-1.6,0.2-3,0.7-4.3c0.4-1.3,1.1-2.5,1.9-3.4
		c0.8-1,1.9-1.7,3.1-2.2c1.2-0.5,2.6-0.8,4.1-0.8c1.2,0,2.4,0.2,3.4,0.6c1,0.4,2,1,2.7,1.8c0.8,0.8,1.4,1.8,1.8,3
		c0.4,1.2,0.7,2.5,0.7,4.1c0,0.3,0,0.5-0.1,0.7c-0.1,0.1-0.2,0.2-0.4,0.2H232z M246.5,19.7c0-1.2-0.2-2.2-0.5-3.1
		c-0.3-0.9-0.8-1.7-1.4-2.4c-0.6-0.6-1.3-1.1-2.1-1.5c-0.8-0.3-1.7-0.5-2.7-0.5c-1.1,0-2.1,0.2-3,0.5c-0.9,0.3-1.7,0.9-2.3,1.5
		c-0.6,0.7-1.2,1.4-1.6,2.4c-0.4,0.9-0.7,1.9-0.8,3.1H246.5z"/>
	<path class="st0" d="M257.1,16.3c0.3-0.9,0.7-1.7,1.1-2.4c0.4-0.7,0.9-1.3,1.5-1.8c0.6-0.5,1.2-0.8,1.9-1.1
		c0.7-0.3,1.5-0.4,2.3-0.4c0.5,0,0.9,0,1.3,0.1c0.4,0.1,0.8,0.2,1.2,0.4l-0.2,1.4c-0.1,0.2-0.2,0.3-0.4,0.3c-0.2,0-0.4-0.1-0.8-0.2
		c-0.4-0.1-0.8-0.2-1.4-0.2c-0.8,0-1.6,0.1-2.2,0.4c-0.6,0.3-1.2,0.6-1.7,1.1c-0.5,0.5-1,1.1-1.4,1.9c-0.4,0.8-0.7,1.6-1.1,2.6v14.1
		h-2.1V11.1h1.1c0.2,0,0.4,0.1,0.5,0.2c0.1,0.1,0.2,0.3,0.2,0.5L257.1,16.3z"/>
	<path class="st0" d="M298.3,14c-0.1,0.1-0.1,0.1-0.2,0.2c-0.1,0.1-0.2,0.1-0.3,0.1c-0.1,0-0.3-0.1-0.6-0.3c-0.2-0.2-0.6-0.4-1-0.6
		c-0.4-0.2-1-0.4-1.6-0.6c-0.6-0.2-1.4-0.3-2.3-0.3c-1.3,0-2.4,0.2-3.3,0.7c-1,0.4-1.8,1.1-2.5,1.9c-0.7,0.8-1.2,1.8-1.5,3
		c-0.3,1.2-0.5,2.5-0.5,4c0,1.5,0.2,2.9,0.5,4.1c0.4,1.2,0.9,2.2,1.5,3c0.7,0.8,1.5,1.4,2.4,1.8c0.9,0.4,2,0.6,3.1,0.6
		c1,0,1.9-0.1,2.6-0.4c0.7-0.2,1.3-0.5,1.7-0.8c0.5-0.3,0.8-0.6,1.1-0.8s0.5-0.4,0.7-0.4c0.2,0,0.3,0.1,0.4,0.2l0.5,0.7
		c-0.3,0.4-0.8,0.8-1.3,1.2c-0.5,0.4-1.1,0.7-1.7,1c-0.6,0.3-1.3,0.5-2.1,0.6c-0.8,0.2-1.5,0.2-2.4,0.2c-1.4,0-2.6-0.3-3.8-0.8
		c-1.1-0.5-2.1-1.2-3-2.2c-0.8-1-1.5-2.1-1.9-3.5c-0.5-1.4-0.7-3-0.7-4.7c0-1.7,0.2-3.2,0.7-4.5c0.4-1.4,1.1-2.5,1.9-3.5
		s1.9-1.8,3.1-2.3c1.2-0.5,2.6-0.8,4.2-0.8c1.4,0,2.7,0.2,3.8,0.7c1.1,0.5,2,1.1,2.9,1.8L298.3,14z"/>
	<path class="st0" d="M313.6,10.7c1.6,0,3,0.3,4.2,0.8c1.2,0.5,2.3,1.3,3.1,2.3s1.5,2.2,1.9,3.5c0.4,1.4,0.7,2.9,0.7,4.6
		s-0.2,3.2-0.7,4.6c-0.4,1.4-1.1,2.5-1.9,3.5c-0.8,1-1.9,1.7-3.1,2.3c-1.2,0.5-2.6,0.8-4.2,0.8c-1.6,0-3-0.3-4.2-0.8
		c-1.2-0.5-2.3-1.3-3.1-2.3c-0.9-1-1.5-2.1-1.9-3.5c-0.4-1.4-0.7-2.9-0.7-4.6s0.2-3.2,0.7-4.6c0.4-1.4,1.1-2.6,1.9-3.5
		c0.9-1,1.9-1.7,3.1-2.3C310.7,11,312,10.7,313.6,10.7z M313.6,31.5c1.3,0,2.4-0.2,3.4-0.7c1-0.4,1.8-1.1,2.4-1.9
		c0.6-0.8,1.1-1.8,1.5-3c0.3-1.2,0.5-2.5,0.5-3.9c0-1.4-0.2-2.8-0.5-3.9c-0.3-1.2-0.8-2.2-1.5-3c-0.6-0.8-1.5-1.5-2.4-1.9
		c-1-0.5-2.1-0.7-3.4-0.7c-1.3,0-2.4,0.2-3.4,0.7c-1,0.5-1.8,1.1-2.4,1.9c-0.6,0.8-1.1,1.8-1.5,3c-0.3,1.2-0.5,2.5-0.5,3.9
		c0,1.5,0.2,2.8,0.5,3.9c0.3,1.2,0.8,2.2,1.5,3c0.6,0.8,1.5,1.5,2.4,1.9C311.2,31.2,312.3,31.5,313.6,31.5z"/>
	<path class="st0" d="M330.5,32.8V11.1h1.2c0.4,0,0.6,0.2,0.6,0.5l0.2,3.1c0.8-1.2,1.8-2.2,2.9-2.9c1.1-0.7,2.3-1.1,3.7-1.1
		c1.6,0,2.9,0.5,3.8,1.4s1.6,2.2,1.9,3.8c0.3-0.9,0.6-1.7,1.1-2.3c0.5-0.7,1-1.2,1.6-1.6c0.6-0.4,1.3-0.7,2-1
		c0.7-0.2,1.5-0.3,2.2-0.3c1.1,0,2,0.2,2.9,0.5c0.9,0.4,1.6,0.9,2.2,1.6c0.6,0.7,1.1,1.6,1.4,2.6c0.3,1,0.5,2.2,0.5,3.5v13.9h-2.1
		V18.9c0-2.1-0.5-3.7-1.4-4.9c-0.9-1.1-2.2-1.7-3.9-1.7c-0.8,0-1.5,0.1-2.2,0.4c-0.7,0.3-1.3,0.7-1.8,1.2c-0.5,0.5-1,1.2-1.3,2
		c-0.3,0.8-0.5,1.8-0.5,2.8v13.9h-2.1V18.9c0-2.1-0.4-3.7-1.3-4.9c-0.8-1.1-2.1-1.7-3.7-1.7c-1.2,0-2.3,0.3-3.3,1s-1.9,1.7-2.7,2.9
		v16.5H330.5z"/>
	<path class="st0" d="M366.8,32.8V11.1h1.2c0.4,0,0.6,0.2,0.6,0.5l0.2,3.1c0.8-1.2,1.8-2.2,2.9-2.9c1.1-0.7,2.3-1.1,3.7-1.1
		c1.6,0,2.9,0.5,3.8,1.4s1.6,2.2,1.9,3.8c0.3-0.9,0.6-1.7,1.1-2.3c0.5-0.7,1-1.2,1.6-1.6c0.6-0.4,1.3-0.7,2-1
		c0.7-0.2,1.5-0.3,2.2-0.3c1.1,0,2,0.2,2.9,0.5c0.9,0.4,1.6,0.9,2.2,1.6c0.6,0.7,1.1,1.6,1.4,2.6c0.3,1,0.5,2.2,0.5,3.5v13.9h-2.1
		V18.9c0-2.1-0.5-3.7-1.4-4.9c-0.9-1.1-2.2-1.7-3.9-1.7c-0.8,0-1.5,0.1-2.2,0.4c-0.7,0.3-1.3,0.7-1.8,1.2c-0.5,0.5-1,1.2-1.3,2
		c-0.3,0.8-0.5,1.8-0.5,2.8v13.9h-2.1V18.9c0-2.1-0.4-3.7-1.3-4.9c-0.8-1.1-2.1-1.7-3.7-1.7c-1.2,0-2.3,0.3-3.3,1s-1.9,1.7-2.7,2.9
		v16.5H366.8z"/>
	<path class="st0" d="M419.9,11.1v21.8h-1.2c-0.4,0-0.6-0.2-0.6-0.6L418,29c-1,1.3-2.2,2.3-3.5,3c-1.3,0.8-2.8,1.1-4.4,1.1
		c-1.2,0-2.3-0.2-3.2-0.6c-0.9-0.4-1.7-0.9-2.3-1.6c-0.6-0.7-1-1.6-1.4-2.6c-0.3-1-0.5-2.1-0.5-3.4V11.1h2.1V25c0,2,0.5,3.6,1.4,4.8
		c0.9,1.2,2.4,1.7,4.3,1.7c1.4,0,2.7-0.4,4-1.1c1.2-0.7,2.3-1.7,3.3-3V11.1H419.9z"/>
	<path class="st0" d="M430.2,14.9c1-1.3,2.2-2.3,3.5-3c1.3-0.8,2.8-1.1,4.4-1.1c1.2,0,2.2,0.2,3.2,0.6c0.9,0.4,1.7,0.9,2.3,1.6
		c0.6,0.7,1,1.6,1.4,2.6c0.3,1,0.5,2.1,0.5,3.4v13.9h-2.1V18.9c0-2-0.5-3.6-1.4-4.8s-2.4-1.7-4.3-1.7c-1.4,0-2.7,0.4-4,1.1
		c-1.2,0.7-2.3,1.7-3.3,3v16.4h-2.1V11.1h1.2c0.4,0,0.6,0.2,0.6,0.5L430.2,14.9z"/>
	<path class="st0" d="M456.5,3.6c0,0.3-0.1,0.5-0.2,0.7c-0.1,0.2-0.3,0.4-0.4,0.6c-0.2,0.2-0.4,0.3-0.6,0.4
		c-0.2,0.1-0.5,0.2-0.7,0.2c-0.3,0-0.5-0.1-0.7-0.2c-0.2-0.1-0.4-0.2-0.6-0.4c-0.2-0.2-0.3-0.4-0.4-0.6c-0.1-0.2-0.2-0.5-0.2-0.7
		s0.1-0.5,0.2-0.8c0.1-0.2,0.2-0.4,0.4-0.6c0.2-0.2,0.4-0.3,0.6-0.4c0.2-0.1,0.5-0.2,0.7-0.2c0.3,0,0.5,0.1,0.7,0.2
		c0.2,0.1,0.4,0.2,0.6,0.4c0.2,0.2,0.3,0.4,0.4,0.6C456.5,3,456.5,3.3,456.5,3.6z M455.6,11.1v21.8h-2.1V11.1H455.6z"/>
	<path class="st0" d="M470.1,33.2c-1.5,0-2.6-0.4-3.4-1.2c-0.8-0.8-1.2-2.1-1.2-3.8V13.3h-3.1c-0.2,0-0.3,0-0.4-0.1
		c-0.1-0.1-0.2-0.2-0.2-0.4V12l3.7-0.3l0.5-7.8c0-0.1,0.1-0.2,0.2-0.3c0.1-0.1,0.2-0.2,0.4-0.2h1v8.3h6.9v1.6h-6.9V28
		c0,0.6,0.1,1.1,0.2,1.5c0.2,0.4,0.4,0.8,0.6,1.1c0.3,0.3,0.6,0.5,1,0.6c0.4,0.1,0.8,0.2,1.2,0.2c0.5,0,1-0.1,1.4-0.2
		c0.4-0.2,0.7-0.3,1-0.5c0.3-0.2,0.5-0.3,0.7-0.5c0.2-0.2,0.3-0.2,0.4-0.2c0.1,0,0.2,0.1,0.3,0.2l0.6,0.9c-0.6,0.6-1.3,1.1-2.1,1.5
		C471.9,33,471,33.2,470.1,33.2z"/>
	<path class="st0" d="M497.8,11.1l-12.5,28.7c-0.1,0.2-0.2,0.4-0.3,0.5c-0.1,0.1-0.3,0.2-0.6,0.2h-1.5l3.8-8.5l-9.2-20.9h1.7
		c0.2,0,0.4,0.1,0.5,0.2c0.1,0.1,0.2,0.2,0.3,0.4l7.3,16.9c0.1,0.2,0.2,0.4,0.2,0.7c0.1,0.2,0.1,0.5,0.2,0.7
		c0.1-0.2,0.1-0.5,0.2-0.7c0.1-0.2,0.2-0.4,0.3-0.7l7.2-16.9c0.1-0.2,0.2-0.3,0.3-0.4c0.1-0.1,0.3-0.1,0.4-0.1H497.8z"/>
	<path class="st0" d="M18.6,49.4c-0.1,0.2-0.3,0.4-0.6,0.4c-0.2,0-0.4-0.1-0.7-0.4c-0.3-0.3-0.7-0.6-1.2-0.9
		c-0.5-0.3-1.1-0.6-1.9-0.9c-0.8-0.3-1.7-0.4-2.8-0.4c-1.1,0-2.1,0.2-3,0.5c-0.9,0.3-1.6,0.8-2.1,1.3s-1,1.2-1.3,1.9
		c-0.3,0.7-0.4,1.5-0.4,2.3c0,1,0.2,1.9,0.7,2.6c0.4,0.7,1,1.3,1.8,1.7c0.7,0.5,1.6,0.9,2.5,1.2c0.9,0.3,1.9,0.7,2.9,1
		c1,0.3,1.9,0.7,2.9,1.1c0.9,0.4,1.8,0.9,2.5,1.5c0.7,0.6,1.3,1.3,1.8,2.2c0.4,0.9,0.7,1.9,0.7,3.2c0,1.3-0.2,2.5-0.7,3.7
		c-0.4,1.1-1.1,2.1-1.9,3c-0.8,0.8-1.9,1.5-3.1,2c-1.2,0.5-2.6,0.7-4.2,0.7c-2,0-3.8-0.4-5.3-1.1c-1.5-0.7-2.8-1.7-3.9-3l0.6-1
		c0.2-0.2,0.4-0.3,0.6-0.3c0.1,0,0.3,0.1,0.5,0.3c0.2,0.2,0.5,0.4,0.7,0.6c0.3,0.3,0.6,0.5,1,0.8c0.4,0.3,0.9,0.6,1.4,0.8
		c0.5,0.3,1.2,0.5,1.9,0.6c0.7,0.2,1.5,0.3,2.4,0.3c1.2,0,2.3-0.2,3.3-0.6c1-0.4,1.8-0.9,2.4-1.5c0.7-0.6,1.2-1.4,1.5-2.3
		c0.3-0.9,0.5-1.8,0.5-2.8c0-1.1-0.2-2-0.7-2.7c-0.4-0.7-1-1.3-1.8-1.8c-0.7-0.5-1.6-0.9-2.5-1.2c-0.9-0.3-1.9-0.6-2.9-0.9
		c-1-0.3-1.9-0.6-2.9-1c-0.9-0.4-1.8-0.9-2.5-1.5c-0.7-0.6-1.3-1.3-1.8-2.2s-0.7-2-0.7-3.3c0-1,0.2-2,0.6-3c0.4-1,1-1.8,1.7-2.5
		c0.8-0.7,1.7-1.3,2.8-1.8c1.1-0.4,2.4-0.7,3.8-0.7c1.6,0,3,0.3,4.3,0.8c1.3,0.5,2.4,1.3,3.5,2.3L18.6,49.4z"/>
	<path class="st0" d="M36.1,45.6c3.6,0,6.4,0.8,8.2,2.4c1.8,1.6,2.8,3.9,2.8,6.8c0,1.4-0.3,2.6-0.8,3.7c-0.5,1.1-1.2,2.1-2.2,2.9
		c-0.9,0.8-2.1,1.5-3.5,1.9c-1.4,0.5-2.9,0.7-4.6,0.7h-5.7v12.5h-2.3V45.6H36.1z M36.1,62.3c1.4,0,2.6-0.2,3.7-0.6
		c1.1-0.4,2-0.9,2.7-1.6c0.8-0.7,1.3-1.5,1.7-2.4c0.4-0.9,0.6-1.9,0.6-3c0-2.4-0.7-4.2-2.2-5.5c-1.5-1.3-3.6-1.9-6.5-1.9h-5.7v14.9
		H36.1z"/>
	<path class="st0" d="M71.4,74.6v1.9H54.5V45.6h2.3v29H71.4z"/>
	<path class="st0" d="M94.3,76.9c-1.5,0-2.6-0.4-3.4-1.2c-0.8-0.8-1.2-2.1-1.2-3.8V57h-3.1c-0.2,0-0.3,0-0.4-0.1
		C86,56.8,86,56.7,86,56.5v-0.8l3.7-0.3l0.5-7.8c0-0.1,0.1-0.2,0.2-0.3c0.1-0.1,0.2-0.2,0.4-0.2h1v8.3h6.9V57h-6.9v14.8
		c0,0.6,0.1,1.1,0.2,1.5c0.2,0.4,0.4,0.8,0.6,1.1c0.3,0.3,0.6,0.5,1,0.6c0.4,0.1,0.8,0.2,1.2,0.2c0.5,0,1-0.1,1.4-0.2
		c0.4-0.2,0.7-0.3,1-0.5c0.3-0.2,0.5-0.3,0.7-0.5c0.2-0.2,0.3-0.2,0.4-0.2c0.1,0,0.2,0.1,0.3,0.2l0.6,0.9c-0.6,0.6-1.3,1.1-2.1,1.5
		C96.1,76.7,95.2,76.9,94.3,76.9z"/>
	<path class="st0" d="M113,54.4c1.6,0,3,0.3,4.2,0.8c1.2,0.5,2.3,1.3,3.1,2.3c0.8,1,1.5,2.2,1.9,3.5c0.4,1.4,0.7,2.9,0.7,4.6
		c0,1.7-0.2,3.2-0.7,4.6c-0.4,1.4-1.1,2.5-1.9,3.5c-0.8,1-1.9,1.7-3.1,2.3c-1.2,0.5-2.6,0.8-4.2,0.8c-1.6,0-3-0.3-4.2-0.8
		c-1.2-0.5-2.3-1.3-3.1-2.3c-0.9-1-1.5-2.1-1.9-3.5c-0.4-1.4-0.7-2.9-0.7-4.6c0-1.7,0.2-3.2,0.7-4.6c0.4-1.4,1.1-2.6,1.9-3.5
		c0.9-1,1.9-1.7,3.1-2.3C110,54.7,111.4,54.4,113,54.4z M113,75.2c1.3,0,2.4-0.2,3.4-0.7c1-0.4,1.8-1.1,2.4-1.9
		c0.6-0.8,1.1-1.8,1.5-3c0.3-1.2,0.5-2.5,0.5-3.9c0-1.4-0.2-2.8-0.5-3.9c-0.3-1.2-0.8-2.2-1.5-3c-0.6-0.8-1.5-1.5-2.4-1.9
		c-1-0.5-2.1-0.7-3.4-0.7c-1.3,0-2.4,0.2-3.4,0.7c-1,0.5-1.8,1.1-2.4,1.9c-0.6,0.8-1.1,1.8-1.5,3c-0.3,1.2-0.5,2.5-0.5,3.9
		c0,1.5,0.2,2.8,0.5,3.9c0.3,1.2,0.8,2.2,1.5,3c0.6,0.8,1.5,1.5,2.4,1.9C110.6,75,111.7,75.2,113,75.2z"/>
	<path class="st0" d="M132,44.7v19.4h1c0.2,0,0.4,0,0.6-0.1c0.2-0.1,0.4-0.2,0.6-0.4l8.7-8.3c0.1-0.2,0.3-0.3,0.5-0.4
		c0.2-0.1,0.4-0.1,0.7-0.1h1.8l-9.6,9.1c-0.3,0.3-0.5,0.5-0.9,0.7c0.2,0.1,0.4,0.3,0.6,0.4c0.2,0.2,0.3,0.3,0.5,0.5l10.1,11h-1.8
		c-0.2,0-0.4,0-0.6-0.1c-0.2-0.1-0.3-0.2-0.5-0.4l-9.1-9.8c-0.1-0.1-0.2-0.2-0.3-0.3c-0.1-0.1-0.2-0.2-0.3-0.2
		c-0.1-0.1-0.3-0.1-0.4-0.1c-0.2,0-0.3,0-0.6,0h-1v11h-2.1V44.7H132z"/>
	<path class="st0" d="M151.1,64.8v0.4c0,1.6,0.2,3.1,0.6,4.3c0.4,1.2,0.9,2.3,1.6,3.1c0.7,0.8,1.5,1.5,2.5,1.9
		c1,0.4,2.1,0.6,3.3,0.6c1.1,0,2-0.1,2.8-0.4s1.5-0.5,2-0.8c0.5-0.3,1-0.6,1.3-0.8c0.3-0.2,0.6-0.4,0.7-0.4c0.2,0,0.3,0.1,0.4,0.2
		l0.6,0.7c-0.3,0.4-0.8,0.8-1.4,1.2c-0.6,0.4-1.2,0.7-1.9,1c-0.7,0.3-1.5,0.5-2.3,0.6c-0.8,0.2-1.6,0.2-2.4,0.2
		c-1.5,0-2.8-0.3-4.1-0.8c-1.2-0.5-2.3-1.3-3.1-2.3c-0.9-1-1.5-2.2-2-3.6c-0.5-1.4-0.7-3.1-0.7-4.9c0-1.6,0.2-3,0.7-4.3
		c0.4-1.3,1.1-2.5,1.9-3.4c0.8-1,1.9-1.7,3.1-2.2c1.2-0.5,2.6-0.8,4.1-0.8c1.2,0,2.4,0.2,3.4,0.6c1,0.4,2,1,2.7,1.8
		c0.8,0.8,1.4,1.8,1.8,3c0.4,1.2,0.7,2.5,0.7,4.1c0,0.3,0,0.5-0.1,0.7c-0.1,0.1-0.2,0.2-0.4,0.2H151.1z M165.6,63.5
		c0-1.2-0.2-2.2-0.5-3.1c-0.3-0.9-0.8-1.7-1.4-2.4c-0.6-0.6-1.3-1.1-2.1-1.5c-0.8-0.3-1.7-0.5-2.7-0.5c-1.1,0-2.1,0.2-3,0.5
		c-0.9,0.3-1.7,0.9-2.3,1.5c-0.6,0.7-1.2,1.4-1.6,2.4c-0.4,0.9-0.7,1.9-0.8,3.1H165.6z"/>
	<path class="st0" d="M176.3,58.6c1-1.3,2.2-2.3,3.5-3c1.3-0.8,2.8-1.1,4.4-1.1c1.2,0,2.2,0.2,3.2,0.6c0.9,0.4,1.7,0.9,2.3,1.6
		c0.6,0.7,1,1.6,1.4,2.6s0.5,2.1,0.5,3.4v13.9h-2.1V62.6c0-2-0.5-3.6-1.4-4.8c-0.9-1.2-2.4-1.7-4.3-1.7c-1.4,0-2.7,0.4-4,1.1
		c-1.2,0.7-2.3,1.7-3.3,3v16.4h-2.1V54.8h1.2c0.4,0,0.6,0.2,0.6,0.5L176.3,58.6z"/>
	<path class="st0" d="M214.5,58.6c0.9-1.3,2.1-2.3,3.3-3s2.7-1.1,4.4-1.1c1.3,0,2.5,0.2,3.5,0.7c1,0.5,1.9,1.2,2.6,2.1
		c0.7,0.9,1.3,2,1.7,3.3c0.4,1.3,0.6,2.8,0.6,4.5c0,1.8-0.2,3.4-0.6,4.8c-0.4,1.5-1,2.7-1.8,3.7s-1.8,1.8-3,2.4
		c-1.2,0.6-2.5,0.8-4,0.8c-1.5,0-2.9-0.3-3.9-0.9c-1.1-0.6-2-1.5-2.8-2.6l-0.2,2.7c0,0.4-0.2,0.5-0.6,0.5h-1.3V44.7h2.1V58.6z
		 M214.5,71.8c0.8,1.3,1.8,2.1,2.8,2.6c1,0.5,2.2,0.8,3.4,0.8c1.3,0,2.4-0.2,3.4-0.7c1-0.5,1.8-1.1,2.4-2c0.6-0.9,1.1-1.9,1.5-3.2
		c0.3-1.2,0.5-2.6,0.5-4.2c0-3-0.6-5.3-1.8-6.8c-1.2-1.5-2.9-2.3-5-2.3c-1.5,0-2.9,0.4-4,1.1c-1.2,0.7-2.2,1.8-3.1,3.1V71.8z"/>
	<path class="st0" d="M254.4,54.8v21.8h-1.2c-0.4,0-0.6-0.2-0.6-0.6l-0.2-3.2c-1,1.3-2.2,2.3-3.5,3c-1.3,0.8-2.8,1.1-4.4,1.1
		c-1.2,0-2.3-0.2-3.2-0.6c-0.9-0.4-1.7-0.9-2.3-1.6c-0.6-0.7-1-1.6-1.4-2.6c-0.3-1-0.5-2.1-0.5-3.4V54.8h2.1v13.9
		c0,2,0.5,3.6,1.4,4.8c0.9,1.2,2.4,1.7,4.3,1.7c1.4,0,2.7-0.4,4-1.1c1.2-0.7,2.3-1.7,3.3-3V54.8H254.4z"/>
	<path class="st0" d="M265.9,47.3c0,0.3-0.1,0.5-0.2,0.7c-0.1,0.2-0.3,0.4-0.4,0.6c-0.2,0.2-0.4,0.3-0.6,0.4
		c-0.2,0.1-0.5,0.2-0.7,0.2c-0.3,0-0.5-0.1-0.7-0.2c-0.2-0.1-0.4-0.2-0.6-0.4c-0.2-0.2-0.3-0.4-0.4-0.6c-0.1-0.2-0.2-0.5-0.2-0.7
		s0.1-0.5,0.2-0.8c0.1-0.2,0.2-0.4,0.4-0.6c0.2-0.2,0.4-0.3,0.6-0.4c0.2-0.1,0.5-0.2,0.7-0.2c0.3,0,0.5,0.1,0.7,0.2
		c0.2,0.1,0.4,0.2,0.6,0.4c0.2,0.2,0.3,0.4,0.4,0.6C265.8,46.8,265.9,47,265.9,47.3z M265,54.8v21.8h-2.1V54.8H265z"/>
	<path class="st0" d="M275.8,44.7v31.8h-2.1V44.7H275.8z"/>
	<path class="st0" d="M290.2,76.9c-1.5,0-2.6-0.4-3.4-1.2c-0.8-0.8-1.2-2.1-1.2-3.8V57h-3.1c-0.2,0-0.3,0-0.4-0.1
		c-0.1-0.1-0.2-0.2-0.2-0.4v-0.8l3.7-0.3l0.5-7.8c0-0.1,0.1-0.2,0.2-0.3c0.1-0.1,0.2-0.2,0.4-0.2h1v8.3h6.9V57h-6.9v14.8
		c0,0.6,0.1,1.1,0.2,1.5c0.2,0.4,0.4,0.8,0.6,1.1c0.3,0.3,0.6,0.5,1,0.6c0.4,0.1,0.8,0.2,1.2,0.2c0.5,0,1-0.1,1.4-0.2
		c0.4-0.2,0.7-0.3,1-0.5c0.3-0.2,0.5-0.3,0.7-0.5c0.2-0.2,0.3-0.2,0.4-0.2c0.1,0,0.2,0.1,0.3,0.2l0.6,0.9c-0.6,0.6-1.3,1.1-2.1,1.5
		C292,76.7,291.1,76.9,290.2,76.9z"/>
	<path class="st0" d="M321.9,54.4c1.6,0,3,0.3,4.2,0.8c1.2,0.5,2.3,1.3,3.1,2.3c0.8,1,1.5,2.2,1.9,3.5c0.4,1.4,0.7,2.9,0.7,4.6
		c0,1.7-0.2,3.2-0.7,4.6c-0.4,1.4-1.1,2.5-1.9,3.5c-0.8,1-1.9,1.7-3.1,2.3c-1.2,0.5-2.6,0.8-4.2,0.8s-3-0.3-4.2-0.8
		c-1.2-0.5-2.3-1.3-3.1-2.3c-0.9-1-1.5-2.1-1.9-3.5c-0.4-1.4-0.7-2.9-0.7-4.6c0-1.7,0.2-3.2,0.7-4.6c0.4-1.4,1.1-2.6,1.9-3.5
		c0.9-1,1.9-1.7,3.1-2.3S320.3,54.4,321.9,54.4z M321.9,75.2c1.3,0,2.4-0.2,3.4-0.7c1-0.4,1.8-1.1,2.4-1.9c0.6-0.8,1.1-1.8,1.5-3
		c0.3-1.2,0.5-2.5,0.5-3.9c0-1.4-0.2-2.8-0.5-3.9c-0.3-1.2-0.8-2.2-1.5-3c-0.6-0.8-1.5-1.5-2.4-1.9c-1-0.5-2.1-0.7-3.4-0.7
		c-1.3,0-2.4,0.2-3.4,0.7c-1,0.5-1.8,1.1-2.4,1.9c-0.6,0.8-1.1,1.8-1.5,3c-0.3,1.2-0.5,2.5-0.5,3.9c0,1.5,0.2,2.8,0.5,3.9
		c0.3,1.2,0.8,2.2,1.5,3c0.6,0.8,1.5,1.5,2.4,1.9C319.5,75,320.6,75.2,321.9,75.2z"/>
	<path class="st0" d="M340.8,58.6c1-1.3,2.2-2.3,3.5-3c1.3-0.8,2.8-1.1,4.4-1.1c1.2,0,2.2,0.2,3.2,0.6c0.9,0.4,1.7,0.9,2.3,1.6
		c0.6,0.7,1,1.6,1.4,2.6c0.3,1,0.5,2.1,0.5,3.4v13.9h-2.1V62.6c0-2-0.5-3.6-1.4-4.8c-0.9-1.2-2.4-1.7-4.3-1.7c-1.4,0-2.7,0.4-4,1.1
		c-1.2,0.7-2.3,1.7-3.3,3v16.4h-2.1V54.8h1.2c0.4,0,0.6,0.2,0.6,0.5L340.8,58.6z"/>
	<path class="st0" d="M392.9,49.4c-0.1,0.2-0.3,0.4-0.6,0.4c-0.2,0-0.4-0.1-0.7-0.4c-0.3-0.3-0.7-0.6-1.2-0.9s-1.1-0.6-1.9-0.9
		c-0.8-0.3-1.7-0.4-2.8-0.4c-1.1,0-2.1,0.2-3,0.5c-0.9,0.3-1.6,0.8-2.1,1.3c-0.6,0.6-1,1.2-1.3,1.9c-0.3,0.7-0.4,1.5-0.4,2.3
		c0,1,0.2,1.9,0.7,2.6c0.4,0.7,1,1.3,1.8,1.7c0.7,0.5,1.6,0.9,2.5,1.2c0.9,0.3,1.9,0.7,2.9,1c1,0.3,1.9,0.7,2.9,1.1
		c0.9,0.4,1.8,0.9,2.5,1.5c0.7,0.6,1.3,1.3,1.8,2.2c0.4,0.9,0.7,1.9,0.7,3.2c0,1.3-0.2,2.5-0.7,3.7c-0.4,1.1-1.1,2.1-1.9,3
		c-0.8,0.8-1.9,1.5-3.1,2c-1.2,0.5-2.6,0.7-4.2,0.7c-2,0-3.8-0.4-5.3-1.1c-1.5-0.7-2.8-1.7-3.9-3l0.6-1c0.2-0.2,0.4-0.3,0.6-0.3
		c0.1,0,0.3,0.1,0.5,0.3c0.2,0.2,0.5,0.4,0.7,0.6c0.3,0.3,0.6,0.5,1,0.8c0.4,0.3,0.9,0.6,1.4,0.8s1.2,0.5,1.9,0.6
		c0.7,0.2,1.5,0.3,2.4,0.3c1.2,0,2.3-0.2,3.3-0.6c1-0.4,1.8-0.9,2.4-1.5c0.7-0.6,1.2-1.4,1.5-2.3c0.3-0.9,0.5-1.8,0.5-2.8
		c0-1.1-0.2-2-0.7-2.7c-0.4-0.7-1-1.3-1.8-1.8c-0.7-0.5-1.6-0.9-2.5-1.2c-0.9-0.3-1.9-0.6-2.9-0.9c-1-0.3-1.9-0.6-2.9-1
		c-0.9-0.4-1.8-0.9-2.5-1.5c-0.7-0.6-1.3-1.3-1.8-2.2s-0.7-2-0.7-3.3c0-1,0.2-2,0.6-3c0.4-1,1-1.8,1.7-2.5c0.8-0.7,1.7-1.3,2.8-1.8
		s2.4-0.7,3.8-0.7c1.6,0,3,0.3,4.3,0.8c1.3,0.5,2.4,1.3,3.5,2.3L392.9,49.4z"/>
	<path class="st0" d="M409.8,54.4c1.6,0,3,0.3,4.2,0.8c1.2,0.5,2.3,1.3,3.1,2.3c0.8,1,1.5,2.2,1.9,3.5c0.4,1.4,0.7,2.9,0.7,4.6
		c0,1.7-0.2,3.2-0.7,4.6c-0.4,1.4-1.1,2.5-1.9,3.5c-0.8,1-1.9,1.7-3.1,2.3c-1.2,0.5-2.6,0.8-4.2,0.8c-1.6,0-3-0.3-4.2-0.8
		c-1.2-0.5-2.3-1.3-3.1-2.3c-0.9-1-1.5-2.1-1.9-3.5c-0.4-1.4-0.7-2.9-0.7-4.6c0-1.7,0.2-3.2,0.7-4.6c0.4-1.4,1.1-2.6,1.9-3.5
		c0.9-1,1.9-1.7,3.1-2.3C406.8,54.7,408.2,54.4,409.8,54.4z M409.8,75.2c1.3,0,2.4-0.2,3.4-0.7c1-0.4,1.8-1.1,2.4-1.9
		c0.6-0.8,1.1-1.8,1.5-3c0.3-1.2,0.5-2.5,0.5-3.9c0-1.4-0.2-2.8-0.5-3.9c-0.3-1.2-0.8-2.2-1.5-3c-0.6-0.8-1.5-1.5-2.4-1.9
		c-1-0.5-2.1-0.7-3.4-0.7c-1.3,0-2.4,0.2-3.4,0.7c-1,0.5-1.8,1.1-2.4,1.9c-0.6,0.8-1.1,1.8-1.5,3c-0.3,1.2-0.5,2.5-0.5,3.9
		c0,1.5,0.2,2.8,0.5,3.9c0.3,1.2,0.8,2.2,1.5,3c0.6,0.8,1.5,1.5,2.4,1.9C407.3,75,408.5,75.2,409.8,75.2z"/>
	<path class="st0" d="M428.9,44.7v31.8h-2.1V44.7H428.9z"/>
	<path class="st0" d="M436.8,57.9c1.1-1.1,2.3-2,3.6-2.6c1.3-0.6,2.7-0.9,4.3-0.9c1.2,0,2.2,0.2,3.1,0.6c0.9,0.4,1.6,0.9,2.2,1.6
		c0.6,0.7,1,1.5,1.3,2.5c0.3,1,0.4,2.1,0.4,3.3v14.2h-0.8c-0.4,0-0.7-0.2-0.8-0.6l-0.3-2.8c-0.6,0.6-1.2,1.1-1.8,1.6
		c-0.6,0.5-1.2,0.9-1.8,1.2c-0.6,0.3-1.3,0.6-2.1,0.7c-0.7,0.2-1.6,0.3-2.4,0.3c-0.7,0-1.5-0.1-2.2-0.3c-0.7-0.2-1.3-0.6-1.9-1
		c-0.5-0.5-1-1-1.3-1.7c-0.3-0.7-0.5-1.6-0.5-2.5c0-0.9,0.3-1.8,0.8-2.6c0.5-0.8,1.3-1.5,2.5-2.1c1.1-0.6,2.6-1,4.3-1.4
		c1.8-0.3,3.9-0.6,6.3-0.6v-2.3c0-2-0.4-3.6-1.3-4.6c-0.9-1.1-2.2-1.6-3.9-1.6c-1,0-1.9,0.1-2.7,0.4c-0.7,0.3-1.4,0.6-1.9,1
		c-0.5,0.3-0.9,0.7-1.2,1c-0.3,0.3-0.6,0.4-0.8,0.4c-0.2,0-0.3,0-0.4-0.1c-0.1-0.1-0.2-0.2-0.3-0.3L436.8,57.9z M449.6,66
		c-2.1,0.1-3.9,0.2-5.3,0.5c-1.5,0.3-2.7,0.6-3.7,1c-1,0.4-1.7,1-2.2,1.6c-0.5,0.6-0.7,1.3-0.7,2.1c0,0.7,0.1,1.4,0.4,1.9
		c0.2,0.5,0.6,1,1,1.3c0.4,0.3,0.9,0.6,1.4,0.8c0.5,0.2,1.1,0.2,1.6,0.2c0.8,0,1.6-0.1,2.3-0.3c0.7-0.2,1.4-0.4,2-0.8
		c0.6-0.3,1.2-0.7,1.7-1.2c0.5-0.5,1-0.9,1.6-1.5V66z"/>
	<path class="st0" d="M461.6,58.6c1-1.3,2.2-2.3,3.5-3c1.3-0.8,2.8-1.1,4.4-1.1c1.2,0,2.2,0.2,3.2,0.6c0.9,0.4,1.7,0.9,2.3,1.6
		c0.6,0.7,1,1.6,1.4,2.6c0.3,1,0.5,2.1,0.5,3.4v13.9h-2.1V62.6c0-2-0.5-3.6-1.4-4.8c-0.9-1.2-2.4-1.7-4.3-1.7c-1.4,0-2.7,0.4-4,1.1
		c-1.2,0.7-2.3,1.7-3.3,3v16.4h-2.1V54.8h1.2c0.4,0,0.6,0.2,0.6,0.5L461.6,58.6z"/>
	<path class="st0" d="M484.2,57.9c1.1-1.1,2.3-2,3.6-2.6c1.3-0.6,2.7-0.9,4.3-0.9c1.2,0,2.2,0.2,3.1,0.6c0.9,0.4,1.6,0.9,2.2,1.6
		c0.6,0.7,1,1.5,1.3,2.5c0.3,1,0.4,2.1,0.4,3.3v14.2h-0.8c-0.4,0-0.7-0.2-0.8-0.6l-0.3-2.8c-0.6,0.6-1.2,1.1-1.8,1.6
		c-0.6,0.5-1.2,0.9-1.8,1.2c-0.6,0.3-1.3,0.6-2.1,0.7c-0.7,0.2-1.6,0.3-2.4,0.3c-0.7,0-1.5-0.1-2.2-0.3c-0.7-0.2-1.3-0.6-1.9-1
		c-0.5-0.5-1-1-1.3-1.7c-0.3-0.7-0.5-1.6-0.5-2.5c0-0.9,0.3-1.8,0.8-2.6c0.5-0.8,1.3-1.5,2.5-2.1c1.1-0.6,2.6-1,4.3-1.4
		c1.8-0.3,3.9-0.6,6.3-0.6v-2.3c0-2-0.4-3.6-1.3-4.6c-0.9-1.1-2.2-1.6-3.9-1.6c-1,0-1.9,0.1-2.7,0.4c-0.7,0.3-1.4,0.6-1.9,1
		c-0.5,0.3-0.9,0.7-1.2,1c-0.3,0.3-0.6,0.4-0.8,0.4c-0.2,0-0.3,0-0.4-0.1c-0.1-0.1-0.2-0.2-0.3-0.3L484.2,57.9z M497,66
		c-2.1,0.1-3.9,0.2-5.3,0.5c-1.5,0.3-2.7,0.6-3.7,1c-1,0.4-1.7,1-2.2,1.6c-0.5,0.6-0.7,1.3-0.7,2.1c0,0.7,0.1,1.4,0.4,1.9
		c0.2,0.5,0.6,1,1,1.3c0.4,0.3,0.9,0.6,1.4,0.8c0.5,0.2,1.1,0.2,1.6,0.2c0.8,0,1.6-0.1,2.3-0.3c0.7-0.2,1.4-0.4,2-0.8
		c0.6-0.3,1.2-0.7,1.7-1.2c0.5-0.5,1-0.9,1.6-1.5V66z"/>
</g>
</svg>
